<?xml version="1.0" encoding="utf-8"?>
<!-- Generator: Adobe Illustrator 24.0.3, SVG Export Plug-In . SVG Version: 6.00 Build 0)  -->
<svg version="1.0" id="Layer_1" xmlns="http://www.w3.org/2000/svg" xmlns:xlink="http://www.w3.org/1999/xlink" x="0px" y="0px"
	 viewBox="0 0 1455 1455" enable-background="new 0 0 1455 1455" xml:space="preserve">
<circle fill="#E7C8BF" cx="727.5" cy="727.5" r="465.74"/>
<g>
	<linearGradient id="SVGID_1_" gradientUnits="userSpaceOnUse" x1="721.2479" y1="790.5348" x2="721.2479" y2="493.1971">
		<stop  offset="0" style="stop-color:#FADEB8"/>
		<stop  offset="0.5169" style="stop-color:#E5C9A2"/>
		<stop  offset="1" style="stop-color:#BD9070"/>
	</linearGradient>
	<path fill="url(#SVGID_1_)" d="M852.17,656.86c0-13.54-7.48-21.52-14.98-21.52c-5.35,0-9.35,0.6-12.34,1.55
		c12.36-96.16-44.47-143.7-97.49-143.7c-58.2,0-123.84,54.56-108.62,146.9c-3.3-1.08-7.66-1.78-13.44-1.78
		c-7.5,0-14.98,7.97-14.98,21.52c0,31.48,34.65,37.37,44.19,38.4c19.38,53.98,48.67,92.31,87.23,92.31
		c35.31,0,65.86-35.43,85.12-84.41C809.75,705.27,852.17,692.12,852.17,656.86z"/>
	<linearGradient id="SVGID_2_" gradientUnits="userSpaceOnUse" x1="730.1586" y1="1064.1169" x2="730.1586" y2="766.7302">
		<stop  offset="0" style="stop-color:#FADEB8"/>
		<stop  offset="0.5169" style="stop-color:#E5C9A2"/>
		<stop  offset="1" style="stop-color:#BD9070"/>
	</linearGradient>
	<path fill="url(#SVGID_2_)" d="M770.29,766.73c-14.45,14.96-30.91,23.8-48.55,23.8c-14.8,0-28.23-5.65-40.26-15.66
		c-0.01,134.78-94.12,122.18-94.12,138c0,43.83,124.71,151.24,152.86,151.24c14.48,0,132.74-116.65,132.74-153.65
		C872.96,887.14,770.29,886.33,770.29,766.73z"/>
	<linearGradient id="SVGID_3_" gradientUnits="userSpaceOnUse" x1="726.8636" y1="1252.9434" x2="726.8636" y2="898.262">
		<stop  offset="0" style="stop-color:#F074AC"/>
		<stop  offset="0.5" style="stop-color:#EB008B"/>
		<stop  offset="1" style="stop-color:#CD118C"/>
	</linearGradient>
	<path fill="url(#SVGID_3_)" d="M1107.32,1157.78c0-179.71-207.36-258.79-244.68-259.52c6.36,3.91,10.32,7.62,10.32,12.2
		c0,37.01-118.26,153.65-132.74,153.65c-28.16,0-152.86-107.41-152.86-151.24c0-5.71,12.24-7.72,27.89-14.28
		c-158.79,6.71-270.56,111.54-270.56,250.34c0,113.21,115.68,103.81,115.68,103.81s335.67-9.4,447.59-9.4
		C1141.17,1243.35,1107.32,1200.09,1107.32,1157.78z"/>
	<linearGradient id="SVGID_4_" gradientUnits="userSpaceOnUse" x1="727.5" y1="1186.6357" x2="727.5" y2="295.587">
		<stop  offset="0" style="stop-color:#89744C"/>
		<stop  offset="0.5" style="stop-color:#574109"/>
		<stop  offset="1" style="stop-color:#3A2600"/>
	</linearGradient>
	<path fill="url(#SVGID_4_)" d="M1188.61,892.66c0-19,7.01-56.68,7.01-75.68c0-110.81-180.8-118.94-180.8-270.5
		c0-60.83-57.95-176.51-153.07-176.51c-46.1,0-22.74,14.65-60.06,14.65c-60.38,0-80.15-89.03-164.76-89.03
		c-66.51,0-79,52.97-79,81.31c0,30.34-34.4,72.17-74.72,72.17c-13.78,0-41.85-4.9-55.63-4.9c-42.01,0-121.93,49.03-121.93,130.34
		c0,123.91,98.11,123.9,98.11,173.79c0,58.05-172.39,71.85-172.39,267.69c0,43.7,27.39,128.45,113.34,132.95v0
		c0-138.8,111.76-243.63,270.56-250.34c27.75-11.63,66.23-37.55,66.23-123.73c0,0,0,0,0,0c-19.32-16.07-35.03-43.39-46.97-76.65
		c-9.53-1.02-44.19-6.91-44.19-38.4c0-13.54,7.48-21.52,14.98-21.52c5.78,0,10.14,0.71,13.44,1.78
		c-15.23-92.33,50.42-146.9,108.62-146.9c53.02,0,109.85,47.54,97.49,143.7c2.99-0.95,6.99-1.55,12.34-1.55
		c7.5,0,14.98,7.97,14.98,21.52c0,35.26-42.42,48.41-45.31,49.26c-9.66,24.58-22.17,45.74-36.69,60.73
		c0.04-0.04,0.08-0.08,0.12-0.12c0,96.13,66.31,115.51,92.34,131.53c0,0,0,0,0,0c37.32,0.73,244.68,79.81,244.68,259.52
		c0,9.75,1.8,19.55,1.71,28.86c45.89-14.03,114.62-73.92,114.62-156.63C1223.64,967.76,1188.61,969.88,1188.61,892.66z"/>
	<linearGradient id="SVGID_5_" gradientUnits="userSpaceOnUse" x1="727.5" y1="1186.6357" x2="727.5" y2="295.587">
		<stop  offset="0" style="stop-color:#89744C"/>
		<stop  offset="0.5" style="stop-color:#574109"/>
		<stop  offset="1" style="stop-color:#3A2600"/>
	</linearGradient>
	<path fill="url(#SVGID_5_)" d="M1188.61,892.66c0-19,7.01-56.68,7.01-75.68c0-110.81-180.8-118.94-180.8-270.5
		c0-60.83-57.95-176.51-153.07-176.51c-46.1,0-22.74,14.65-60.06,14.65c-60.38,0-80.15-89.03-164.76-89.03
		c-66.51,0-79,52.97-79,81.31c0,30.34-34.4,72.17-74.72,72.17c-13.78,0-41.85-4.9-55.63-4.9c-42.01,0-121.93,49.03-121.93,130.34
		c0,123.91,98.11,123.9,98.11,173.79c0,58.05-172.39,71.85-172.39,267.69c0,43.7,27.39,128.45,113.34,132.95v0
		c0-138.8,111.76-243.63,270.56-250.34c27.75-11.63,66.23-37.55,66.23-123.73c0,0,0,0,0,0c-19.32-16.07-35.03-43.39-46.97-76.65
		c-9.53-1.02-44.19-6.91-44.19-38.4c0-13.54,7.48-21.52,14.98-21.52c5.78,0,10.14,0.71,13.44,1.78
		c-15.23-92.33,50.42-146.9,108.62-146.9c53.02,0,109.85,47.54,97.49,143.7c2.99-0.95,6.99-1.55,12.34-1.55
		c7.5,0,14.98,7.97,14.98,21.52c0,35.26-42.42,48.41-45.31,49.26c-9.66,24.58-22.17,45.74-36.69,60.73
		c0.04-0.04,0.08-0.08,0.12-0.12c0,96.13,66.31,115.51,92.34,131.53c0,0,0,0,0,0c37.32,0.73,244.68,79.81,244.68,259.52
		c0,9.75,1.8,19.55,1.71,28.86c45.89-14.03,114.62-73.92,114.62-156.63C1223.64,967.76,1188.61,969.88,1188.61,892.66z"/>
	<linearGradient id="SVGID_6_" gradientUnits="userSpaceOnUse" x1="456.4201" y1="1148.9419" x2="456.4201" y2="310.0051">
		<stop  offset="0" style="stop-color:#89744C"/>
		<stop  offset="1" style="stop-color:#574109"/>
	</linearGradient>
	<path fill="url(#SVGID_6_)" d="M587.36,310.01L587.36,310.01c-23.82,17.75-29.44,47.86-29.44,66.89c0,30.34-34.4,72.17-74.72,72.17
		c-13.78,0-41.85-4.9-55.63-4.9c-42.01,0-121.93,49.03-121.93,130.34c0,123.91,98.11,123.9,98.11,173.79
		c0,58.05-172.39,71.85-172.39,267.69c0,43.7,27.39,128.45,113.34,132.95v0c0-138.8,111.76-243.63,270.56-250.34
		c27.75-11.63,66.23-37.55,66.23-123.73c0,0,0,0,0,0c-19.32-16.07-35.03-43.39-46.97-76.65c-9.53-1.02-44.19-6.91-44.19-38.4
		c0-8.08,2.67-14.15,6.41-17.76c-39.92-24.03-73.63-48.7-72.41-77.14c2.01-46.85,141.19-66.58,150-112.64
		C682.15,411.34,625.6,326.6,587.36,310.01z"/>
</g>
</svg>
